name C:\Users\r0593348\3dpredictsim\Results\batch_windlass\Pog_s1_tmt_bCst_d00_k800_WL40_ig24_act_TTC.mot
datacolumns 128
datarows 4
range 1.91561082 1.95392304
endheader
time	pelvis_tilt	pelvis_list	pelvis_rotation	pelvis_tx	pelvis_ty	pelvis_tz	hip_flexion_l	hip_adduction_l	hip_rotation_l	hip_flexion_r	hip_adduction_r	hip_rotation_r	knee_angle_l	knee_angle_r	ankle_angle_l	ankle_angle_r	subtalar_angle_l	subtalar_angle_r	tmt_angle_l	tmt_angle_r	mtp_angle_l	mtp_angle_r	lumbar_extension	lumbar_bending	lumbar_rotation	arm_flex_l	arm_add_l	arm_rot_l	arm_flex_r	arm_add_r	arm_rot_r	elbow_flex_l	elbow_flex_r	pro_sup_l	pro_sup_r	glut_med1_l/activation	glut_med2_l/activation	glut_med3_l/activation	glut_min1_l/activation	glut_min2_l/activation	glut_min3_l/activation	semimem_l/activation	semiten_l/activation	bifemlh_l/activation	bifemsh_l/activation	sar_l/activation	add_long_l/activation	add_brev_l/activation	add_mag1_l/activation	add_mag2_l/activation	add_mag3_l/activation	tfl_l/activation	pect_l/activation	grac_l/activation	glut_max1_l/activation	glut_max2_l/activation	glut_max3_l/activation	iliacus_l/activation	psoas_l/activation	quad_fem_l/activation	gem_l/activation	peri_l/activation	rect_fem_l/activation	vas_med_l/activation	vas_int_l/activation	vas_lat_l/activation	med_gas_l/activation	lat_gas_l/activation	soleus_l/activation	tib_post_l/activation	flex_dig_l/activation	flex_hal_l/activation	tib_ant_l/activation	per_brev_l/activation	per_long_l/activation	per_tert_l/activation	ext_dig_l/activation	ext_hal_l/activation	ercspn_l/activation	intobl_l/activation	extobl_l/activation	glut_med1_r/activation	glut_med2_r/activation	glut_med3_r/activation	glut_min1_r/activation	glut_min2_r/activation	glut_min3_r/activation	semimem_r/activation	semiten_r/activation	bifemlh_r/activation	bifemsh_r/activation	sar_r/activation	add_long_r/activation	add_brev_r/activation	add_mag1_r/activation	add_mag2_r/activation	add_mag3_r/activation	tfl_r/activation	pect_r/activation	grac_r/activation	glut_max1_r/activation	glut_max2_r/activation	glut_max3_r/activation	iliacus_r/activation	psoas_r/activation	quad_fem_r/activation	gem_r/activation	peri_r/activation	rect_fem_r/activation	vas_med_r/activation	vas_int_r/activation	vas_lat_r/activation	med_gas_r/activation	lat_gas_r/activation	soleus_r/activation	tib_post_r/activation	flex_dig_r/activation	flex_hal_r/activation	tib_ant_r/activation	per_brev_r/activation	per_long_r/activation	per_tert_r/activation	ext_dig_r/activation	ext_hal_r/activation	ercspn_r/activation	intobl_r/activation	extobl_r/activation	
          1.91561082	         -2.92847756	          0.72459892	         -9.26413148	          2.39451353	          0.85914148	          0.00386150	         32.58470262	         -0.29235633	         -0.67993108	        -16.40977810	         -2.55873665	          8.16621974	        -15.24863307	        -15.89575688	         10.77666186	         -8.74529182	          2.49806350	         18.85267900	         -0.19468297	        -14.99999987	          0.44908086	         35.79553990	          0.14225395	          1.49137340	          3.57616498	        -16.13963820	        -13.71940915	          9.50306445	          2.00076608	        -13.65002697	         17.61840760	         20.22954488	         51.75540713	         86.51662706	         86.51662706	          0.06064206	          0.05000106	          0.09227037	          0.05000140	          0.05000161	          0.05000298	          0.07846798	          0.07354852	          0.10303980	          0.06064330	          0.05000374	          0.10818790	          0.15635567	          0.16287341	          0.14495278	          0.09951261	          0.05000069	          0.06062790	          0.07354992	          0.05000186	          0.05000150	          0.09120725	          0.06064217	          0.06064148	          0.18101165	          0.05000752	          0.06926727	          0.05000024	          0.12308730	          0.12981920	          0.10954868	          0.06064234	          0.06064243	          0.06064228	          0.05759437	          0.05000233	          0.06056152	          0.47931357	          0.27100824	          0.15842208	          0.06390754	          0.63304244	          0.41340461	          0.05000012	          0.10342673	          0.08535293	          0.16108385	          0.07999081	          0.05000257	          0.18715061	          0.12747859	          0.08741125	          0.05011720	          0.05117143	          0.05001052	          0.06064199	          0.06077933	          0.13994638	          0.12663780	          0.05919152	          0.05000541	          0.05000123	          0.15795023	          0.06064194	          0.06064211	          0.05000615	          0.05000366	          0.05000248	          0.24503961	          0.40716558	          0.08268450	          0.05000777	          0.05003279	          0.11148494	          0.08968229	          0.09201197	          0.07297147	          0.12427259	          0.17186253	          0.05000001	          0.10270691	          0.11978169	          0.12818626	          0.33889849	          0.46641955	          0.33245927	          0.72283994	          0.59321144	          0.30804636	          0.05000043	          0.05000042	          0.07726410	
          1.92838156	         -2.91857035	          0.63815126	         -9.32452112	          2.41556259	          0.85754019	          0.00344492	         31.76101554	          0.04924516	         -0.48082362	        -16.31272488	         -2.67594775	          7.82008458	        -15.17335266	        -17.87466353	          9.95047549	        -11.17295942	          2.19578347	         19.07796728	         -0.28879256	        -14.40120786	          0.70371872	         33.89334530	          0.40127539	          1.30325844	          3.69399259	        -17.65592080	        -13.71311294	          9.49609840	          1.38965182	        -13.76116976	         17.85630243	         20.15943377	         53.02649570	         86.51662706	         86.51662706	          0.05000027	          0.05000740	          0.16141817	          0.05000041	          0.05000049	          0.05000133	          0.06469745	          0.06064150	          0.08495711	          0.05000175	          0.05000157	          0.08920200	          0.12891674	          0.28479622	          0.20208232	          0.10835311	          0.06064100	          0.05000290	          0.06064283	          0.06064269	          0.06064511	          0.12268957	          0.05000021	          0.05000040	          0.44745599	          0.08918799	          0.10412506	          0.07354996	          0.32094589	          0.31386965	          0.27283144	          0.05000006	          0.05000014	          0.05000001	          0.05348534	          0.07354876	          0.05000175	          0.66186765	          0.35404361	          0.19521064	          0.49438001	          0.69669870	          0.49603361	          0.05000002	          0.08527611	          0.07037414	          0.13281494	          0.06595339	          0.07354531	          0.15430726	          0.10510719	          0.07207167	          0.05000254	          0.05000028	          0.05000057	          0.05000012	          0.05011326	          0.18556647	          0.28304584	          0.30650523	          0.13110670	          0.10831243	          0.13023120	          0.05000392	          0.05000070	          0.05013991	          0.06066936	          0.07355473	          0.20203699	          0.33571174	          0.06870516	          0.07349306	          0.06064799	          0.09192015	          0.08920438	          0.08920439	          0.08920440	          0.10246365	          0.14170192	          0.05000035	          0.08468261	          0.09876099	          0.10569057	          0.55387264	          0.52514891	          0.33620840	          0.59598859	          0.48910722	          0.25398651	          0.07013806	          0.06132384	          0.07354966	
          1.94115230	         -2.90123276	          0.56262922	         -9.33341326	          2.43659931	          0.85529821	          0.00304817	         30.78346743	          0.33909738	         -0.22594720	        -16.00179199	         -2.75298426	          7.49857454	        -15.63560321	        -20.39524657	          8.98139514	        -13.06141722	          1.86085293	         19.23212984	         -0.83839842	        -12.93531192	          0.86570855	         29.96247578	          0.64862921	          1.08902316	          3.78780138	        -19.03877982	        -13.72945782	          9.68233243	          0.74103631	        -13.87243712	         17.99430329	         19.86228421	         54.27112802	         86.51662706	         86.51662706	          0.26287023	          0.33604139	          0.47949168	          0.17574135	          0.11239741	          0.27259663	          0.08855744	          0.05000014	          0.10249062	          0.05000006	          0.05000160	          0.07354961	          0.10819157	          0.23481702	          0.18733288	          0.15512213	          0.05000051	          0.06601502	          0.05000076	          0.05000053	          0.05000241	          0.15819544	          0.05000294	          0.05000049	          0.36893081	          0.07353662	          0.33472952	          0.06064250	          0.26462649	          0.27026376	          0.22684803	          0.06064208	          0.06064210	          0.06064226	          0.05000021	          0.06064226	          0.06064228	          0.63352229	          0.31375422	          0.16095272	          0.72689473	          0.79518283	          0.60966480	          0.05384955	          0.07707108	          0.05802404	          0.27927907	          0.05438080	          0.06063974	          0.12722810	          0.08666193	          0.06064017	          0.05326812	          0.05000049	          0.05000089	          0.05000031	          0.05001116	          0.15300133	          0.27042640	          0.25271605	          0.10809933	          0.08930468	          0.10737667	          0.07049799	          0.05003867	          0.05001313	          0.05002576	          0.06064694	          0.16658110	          0.31537052	          0.06064216	          0.06059697	          0.05000494	          0.07578883	          0.07354968	          0.07354969	          0.07354969	          0.08448203	          0.11683430	          0.05000001	          0.06982145	          0.08142931	          0.08714275	          0.45667204	          0.43598968	          0.29050138	          0.56869894	          0.72404792	          0.59704914	          0.09632047	          0.05056198	          0.06064230	
          1.95392304	         -2.87998711	          0.51763289	         -9.28906635	          2.45729280	          0.85277009	          0.00261352	         29.78249491	          0.63808798	          0.05220546	        -15.44727696	         -2.81872884	          7.21291749	        -16.28358302	        -23.37504662	          8.45026948	        -14.61298816	          1.49993416	         19.29640078	         -1.70047420	        -10.77229959	          1.04339641	         24.34759990	          0.86488877	          0.83270895	          3.86170634	        -20.20529499	        -13.75478517	         10.06418210	          0.12452866	        -13.96201735	         18.05211942	         19.29433262	         55.37853865	         86.51662706	         86.51662706	          0.38880820	          0.51648967	          0.63829437	          0.29587432	          0.31646899	          0.47753536	          0.07301634	          0.10631182	          0.08450446	          0.07354959	          0.05000140	          0.06064237	          0.08920486	          0.19361185	          0.22621090	          0.18570269	          0.05000030	          0.05443125	          0.11888430	          0.32496439	          0.24549161	          0.22101365	          0.05000019	          0.05000018	          0.30418626	          0.06063210	          0.29648764	          0.05000019	          0.21818754	          0.33775813	          0.25561009	          0.05000000	          0.05000002	          0.05000000	          0.05000001	          0.05000026	          0.05000015	          0.80205185	          0.28027857	          0.13277121	          0.85248567	          0.87075534	          0.75486522	          0.08994463	          0.06354569	          0.05000005	          0.23026777	          0.05000023	          0.05000010	          0.16515998	          0.07145364	          0.05000046	          0.07845771	          0.05928263	          0.07933968	          0.05000018	          0.05000348	          0.20193795	          0.22297661	          0.21230936	          0.08913061	          0.07363272	          0.08853293	          0.05824661	          0.05000164	          0.05000314	          0.05000195	          0.05000444	          0.14394356	          0.31180380	          0.05000026	          0.05000084	          0.05000018	          0.06248845	          0.06064227	          0.06064227	          0.06064227	          0.06965607	          0.09633083	          0.06064224	          0.05756835	          0.06713927	          0.07185003	          0.57670827	          0.35947877	          0.23952131	          0.46889658	          0.59698277	          0.49227137	          0.13984153	          0.05000001	          0.05000009	
